<svg width="100" height="115" viewBox="0 0 100 115" fill="none" xmlns="http://www.w3.org/2000/svg">
<path d="M40.5838 86.4493C37.2105 91.9394 34.9999 98.0634 34.0888 104.442C58.9016 106.025 72.409 114.104 72.409 114.104C72.409 114.104 83.8766 96.2628 99.911 95.8365C91.7045 89.0711 82.2751 83.9447 72.135 80.7358C61.0834 77.194 44.3184 80.685 40.5838 86.4493Z" fill="#D2E2FF"/>
<path d="M72.1348 80.7358C66.2184 81.6593 61.885 87.0785 60.0481 92.2034C54.0708 86.8755 47.657 84.2573 41.5376 85.2924C46.2971 79.0714 59.4494 76.2096 72.1348 80.7358Z" fill="#E8F0FF"/>
<path d="M19.1813 69.2981C26.5551 70.7752 34.1533 70.7269 41.5077 69.156C33.2571 41.3292 36.6467 23.2854 36.6467 23.2854C36.6467 23.2854 12.4936 17.9068 5.54196 0.522705C1.43152 12.2447 -0.384237 24.6484 0.193784 37.0568C0.792536 50.5642 11.3773 67.5322 19.1813 69.2981Z" fill="#508EFF"/>
<path d="M0.224258 37.0264C3.62396 43.1154 11.3063 45.7134 17.649 45.6525C14.229 54.3496 13.9347 62.4277 17.5475 68.7197C8.83006 65.9999 0.366335 52.7563 0.224258 37.0264Z" fill="#1769FF"/>
<path d="M75.3322 39.3375C72.491 29.378 59.517 25.056 59.517 25.056C55.4615 40.5765 48.7397 48.1767 48.7397 48.1767C48.7397 48.1767 58.6432 57.6299 56.9951 67.8181C56.9951 67.8181 70.3602 57.0817 75.3322 39.3375Z" fill="#E8F0FF"/>
</svg>
