<svg width="14" height="19" viewBox="0 0 14 19" fill="none" xmlns="http://www.w3.org/2000/svg">
<path d="M9.75281 0H3.75108C2.7566 0.00119124 1.80319 0.396776 1.09998 1.09998C0.396776 1.80319 0.00119124 2.7566 0 3.75108V17.255C0.000105695 17.3914 0.0374256 17.5253 0.107942 17.6421C0.178459 17.7589 0.279502 17.8543 0.400193 17.9179C0.520885 17.9816 0.656655 18.0111 0.792888 18.0034C0.929121 17.9956 1.06066 17.9509 1.17334 17.8739L2.75329 16.7943L4.33325 17.8739C4.45807 17.9594 4.60583 18.0051 4.75712 18.0051C4.90841 18.0051 5.05616 17.9594 5.18099 17.8739L6.75644 16.7943L8.3319 17.8739C8.4568 17.9595 8.6047 18.0054 8.75614 18.0054C8.90759 18.0054 9.05549 17.9595 9.18039 17.8739L10.7558 16.7951L12.3313 17.8731C12.4439 17.9499 12.5753 17.9945 12.7114 18.0021C12.8474 18.0098 12.983 17.9803 13.1035 17.9168C13.2241 17.8532 13.325 17.758 13.3956 17.6414C13.4661 17.5248 13.5036 17.3912 13.5039 17.255V3.75108C13.5027 2.7566 13.1071 1.80319 12.4039 1.09998C11.7007 0.396776 10.7473 0.00119124 9.75281 0V0ZM12.0035 15.8296L11.1782 15.2654C11.0532 15.1796 10.9052 15.1337 10.7536 15.1337C10.602 15.1337 10.454 15.1796 10.329 15.2654L8.75352 16.345L7.17807 15.2654C7.05316 15.1798 6.90526 15.1339 6.75382 15.1339C6.60237 15.1339 6.45448 15.1798 6.32957 15.2654L4.75412 16.345L3.17866 15.2654C3.05391 15.1801 2.9063 15.1344 2.75517 15.1344C2.60403 15.1344 2.45642 15.1801 2.33167 15.2654L1.50043 15.8296V3.75108C1.50043 3.15417 1.73755 2.58171 2.15963 2.15963C2.58171 1.73755 3.15417 1.50043 3.75108 1.50043H9.75281C10.3497 1.50043 10.9222 1.73755 11.3443 2.15963C11.7663 2.58171 12.0035 3.15417 12.0035 3.75108V15.8296Z" />
<path d="M9.75268 6.00172H3.75095C3.33662 6.00172 3.00073 6.33761 3.00073 6.75194C3.00073 7.16627 3.33662 7.50216 3.75095 7.50216H9.75268C10.167 7.50216 10.5029 7.16627 10.5029 6.75194C10.5029 6.33761 10.167 6.00172 9.75268 6.00172Z" />
<path d="M8.25224 9.00259H3.75095C3.33662 9.00259 3.00073 9.33848 3.00073 9.75281C3.00073 10.1671 3.33662 10.503 3.75095 10.503H8.25224C8.66658 10.503 9.00246 10.1671 9.00246 9.75281C9.00246 9.33848 8.66658 9.00259 8.25224 9.00259Z" />
</svg>
