<svg width="22" height="11" viewBox="0 0 22 11" fill="none" xmlns="http://www.w3.org/2000/svg">
<path d="M0.46967 9.46965C0.176777 9.76255 0.176777 10.2374 0.46967 10.5303C0.762563 10.8232 1.23744 10.8232 1.53033 10.5303L0.46967 9.46965ZM7.52153 3.47845L8.05186 2.94812L7.52153 2.41779L6.9912 2.94812L7.52153 3.47845ZM12.7388 8.69568L12.2084 9.22601L12.7388 9.75634L13.2691 9.22601L12.7388 8.69568ZM1.53033 10.5303L8.05186 4.00878L6.9912 2.94812L0.46967 9.46965L1.53033 10.5303ZM6.9912 4.00878L12.2084 9.22601L13.2691 8.16535L8.05186 2.94812L6.9912 4.00878ZM13.2691 9.22601L19.7906 2.70448L18.73 1.64382L12.2084 8.16535L13.2691 9.22601Z" fill="#43CD8B"/>
<path d="M14.1882 2.76683L19.2608 2.30569L18.7997 7.37825" stroke="#43CD8B" stroke-width="1.5" stroke-linecap="round"/>
</svg>
