<svg width="20" height="18" viewBox="0 0 20 18" fill="none" xmlns="http://www.w3.org/2000/svg">
<path d="M0 6.34451V5.74265C0.0138252 5.73104 0.0327734 5.72155 0.0409662 5.70625C1.00515 3.95552 1.97394 2.20689 2.92634 0.449304C3.09993 0.128591 3.31703 -0.00117067 3.6729 -0.000115693C7.89114 0.00832411 12.1092 0.0100823 16.3271 0.00515911H16.4807C16.5853 0.00190497 16.6886 0.0295254 16.7784 0.084762C16.8682 0.139999 16.9408 0.220547 16.9876 0.316905C17.9588 2.07942 18.9317 3.84105 19.9063 5.60181C19.9736 5.71723 20.0053 5.85092 19.9974 5.98529C19.9252 7.12467 19.4158 7.97867 18.4357 8.5204C18.3154 8.58686 18.2775 8.65807 18.2775 8.79575C18.2816 11.6442 18.2826 14.494 18.2806 17.3453C18.2806 17.8137 18.0998 17.9994 17.6425 17.9994H2.35336C1.89252 17.9994 1.7174 17.8168 1.71689 17.3458C1.71689 14.516 1.71825 11.6862 1.72099 8.85641C1.72099 8.67495 1.67849 8.57526 1.51617 8.48717C0.897616 8.15801 0.475182 7.64319 0.202262 6.98224C0.11419 6.77494 0.122379 6.54021 0 6.34451ZM5.2582 7.56828C5.23958 7.58022 5.22239 7.59438 5.207 7.61048C4.61098 8.436 3.81372 8.85272 2.81523 8.85008C2.66981 8.85008 2.6995 8.93711 2.6995 9.01835C2.6995 11.6206 2.69831 14.2229 2.69592 16.8252C2.69592 16.9766 2.74713 16.9966 2.87411 16.9945C3.30321 16.9866 3.73282 16.9945 4.16242 16.9908C4.47887 16.9908 4.43432 17.0362 4.43483 16.7202C4.43483 15.037 4.4461 13.3538 4.43176 11.6706C4.42305 10.5897 5.15118 9.86444 6.00528 9.82013C6.55675 9.79112 7.1113 9.81222 7.66431 9.82013C7.76855 9.8234 7.87189 9.84114 7.97153 9.87288C8.75752 10.1076 9.22195 10.7548 9.22297 11.6231C9.22502 13.3525 9.22417 15.0825 9.22041 16.813C9.22041 16.9512 9.25062 16.9897 9.38939 16.9897C11.9739 16.9852 14.558 16.9852 17.1418 16.9897C17.2621 16.9897 17.3087 16.9681 17.3082 16.8278C17.3037 14.2255 17.3037 11.6233 17.3082 9.02098C17.3082 8.89386 17.2836 8.85061 17.1489 8.85219C16.6131 8.85952 16.0865 8.70771 15.6323 8.4149C15.2885 8.1903 14.9903 7.89921 14.7541 7.55773C14.7234 7.59571 14.7029 7.62103 14.6819 7.64741C13.4694 9.24675 11.3218 9.26363 10.1037 7.67747C9.99002 7.52925 9.95468 7.61417 9.88863 7.70279C9.49314 8.23295 8.93414 8.6085 8.30373 8.76758C7.67331 8.92665 7.00911 8.85975 6.42054 8.57789C5.95346 8.35282 5.55246 8.00451 5.2582 7.56828ZM18.5683 5.22624C18.5294 5.15714 18.5069 5.11757 18.4849 5.07748C17.768 3.78092 17.054 2.48383 16.343 1.1862C16.3203 1.13276 16.2818 1.08811 16.2329 1.05872C16.1841 1.02932 16.1274 1.0167 16.0711 1.02268C12.0228 1.02655 7.97461 1.02655 3.92637 1.02268C3.8702 1.0167 3.81363 1.02921 3.76479 1.05839C3.71594 1.08758 3.67732 1.13195 3.65447 1.18515C2.95092 2.47328 2.2402 3.75718 1.53307 5.0432C1.50286 5.09595 1.45114 5.14869 1.45933 5.22624H18.5683ZM8.24189 14.1687C8.24189 13.31 8.24189 12.4518 8.24189 11.593C8.24189 11.113 7.95361 10.8181 7.48662 10.815C7.05036 10.8118 6.6141 10.8118 6.17783 10.815C5.70675 10.8181 5.42513 11.104 5.4241 11.5914C5.4241 13.3353 5.4241 15.0792 5.42 16.8231C5.42 16.9581 5.45892 16.9871 5.58284 16.9866C6.41645 16.9808 7.24954 16.9792 8.08316 16.9866C8.23267 16.9866 8.24599 16.9338 8.24496 16.803C8.23984 15.9258 8.24189 15.0481 8.24189 14.1687ZM4.73079 6.24165H3.57561C2.76914 6.24165 1.96267 6.24165 1.1562 6.24165C1.0456 6.24165 1.01027 6.25431 1.04611 6.38196C1.09605 6.58281 1.17733 6.77396 1.28677 6.94796C1.75069 7.64582 2.39791 7.95018 3.20336 7.80249C4.02622 7.64688 4.51829 7.10409 4.73079 6.24165ZM7.62385 6.24165C7.06521 6.24165 6.50606 6.24165 5.9469 6.24165C5.8235 6.24165 5.76103 6.23743 5.8066 6.41045C5.9153 6.82016 6.15148 7.18183 6.47892 7.43996C6.80635 7.69809 7.20695 7.83843 7.61926 7.83945C8.03157 7.84047 8.43281 7.70211 8.76144 7.4456C9.09007 7.18909 9.32793 6.82859 9.43854 6.41941C9.47797 6.26855 9.44213 6.23901 9.3008 6.2406C8.74318 6.24587 8.18403 6.24165 7.62488 6.24165H7.62385ZM12.3813 6.24165C11.8149 6.24165 11.2486 6.24482 10.6823 6.24165C10.5574 6.24165 10.5287 6.26908 10.5594 6.3999C10.7642 7.22911 11.519 7.83466 12.3674 7.83994C12.7801 7.8416 13.1819 7.70353 13.511 7.44696C13.8401 7.1904 14.0782 6.82955 14.1888 6.41994C14.2272 6.2733 14.2098 6.23849 14.0608 6.2406C13.5021 6.2464 12.942 6.24165 12.3823 6.24165H12.3813ZM17.1366 6.24904C16.578 6.24904 16.0188 6.25536 15.4602 6.24482C15.2974 6.24165 15.2815 6.28912 15.3204 6.43577C15.538 7.25759 16.3076 7.8526 17.1494 7.84099C17.5612 7.83506 17.9599 7.69108 18.2851 7.43086C18.6103 7.17065 18.8444 6.80835 18.9518 6.39884C18.9861 6.26064 18.9518 6.24534 18.833 6.2464C18.2688 6.25167 17.7035 6.24904 17.1377 6.24904H17.1366Z" />
<path d="M12.8325 14.7216C12.364 14.7216 11.8949 14.7385 11.4279 14.7174C10.7152 14.6858 10.1791 14.1372 10.157 13.4045C10.1345 12.6481 10.1345 11.892 10.157 11.1363C10.1796 10.3868 10.7372 9.82656 11.4643 9.8139C12.386 9.79808 13.3095 9.79808 14.235 9.8139C14.5812 9.81306 14.9137 9.95356 15.1597 10.2047C15.4057 10.4558 15.545 10.797 15.5473 11.1537C15.5668 11.8975 15.5668 12.6412 15.5473 13.385C15.5279 14.1398 14.9923 14.69 14.257 14.7216C13.7828 14.7422 13.3071 14.7253 12.8325 14.7253V14.7216ZM12.8325 13.7163C13.2682 13.7163 13.703 13.7163 14.1397 13.7163C14.4367 13.7163 14.5734 13.5781 14.5745 13.2774C14.5775 12.6075 14.5775 11.9376 14.5745 11.2677C14.5745 10.957 14.4357 10.8172 14.1295 10.8161C13.2761 10.814 12.424 10.814 11.5734 10.8161C11.2661 10.8161 11.1304 10.957 11.1294 11.2687C11.1267 11.9316 11.1267 12.5948 11.1294 13.2584C11.1294 13.5854 11.26 13.7152 11.5836 13.7168C12.0019 13.7173 12.4157 13.7163 12.832 13.7163H12.8325Z" />
</svg>
