<svg width="30" height="26" viewBox="0 0 30 26" fill="none" xmlns="http://www.w3.org/2000/svg">
<path d="M0.843404 21.3122C0.972016 21.1174 0.954514 20.8852 1.0017 20.6706C1.32825 19.196 2.14169 17.8742 3.311 16.9182C4.48031 15.9621 5.93739 15.4276 7.44753 15.4006C8.85085 15.3785 10.2557 15.3914 11.6598 15.4006C11.972 15.4074 12.2833 15.4366 12.5913 15.4881C12.7435 15.5117 12.8044 15.4744 12.8508 15.3283C13.6879 12.7294 15.4481 11.151 18.1132 10.5772C18.4478 10.5072 18.7889 10.473 19.1307 10.4752C20.5728 10.4752 22.0157 10.4456 23.4571 10.4806C25.2032 10.5217 26.8641 11.2432 28.0858 12.4915C29.3074 13.7397 29.9931 15.4158 29.9966 17.1623C30.0042 18.0162 29.9966 18.8701 29.9966 19.7239C29.9966 20.3457 29.6328 20.7132 29.0072 20.7254C28.8459 20.7292 28.6846 20.7254 28.5232 20.7254C25.1549 20.7254 21.7867 20.7292 18.4184 20.7178C18.1399 20.7178 18.114 20.8 18.1589 21.0359C18.2147 21.3245 18.246 21.6173 18.2525 21.9111C18.2654 22.8411 18.2639 23.771 18.2586 24.701C18.2586 25.2657 17.872 25.6447 17.3066 25.6447C12.1352 25.6447 6.96429 25.6462 1.79392 25.6492C1.31752 25.6492 1.0641 25.3669 0.8396 25.0145L0.843404 21.3122ZM9.55099 23.8235C11.758 23.8235 13.971 23.8235 16.181 23.8281C16.3872 23.8281 16.4565 23.7885 16.4481 23.5678C16.4283 23.0473 16.4481 22.5245 16.4382 22.0032C16.3819 19.4226 14.2807 17.2848 11.7016 17.227C10.2702 17.1935 8.83716 17.1966 7.40568 17.227C5.15839 17.275 3.22007 18.9256 2.76955 21.1265C2.60288 21.9354 2.69801 22.752 2.66148 23.5617C2.65159 23.7733 2.70638 23.8266 2.92175 23.8258C5.13327 23.8182 7.34023 23.822 9.55099 23.822V23.8235ZM22.7889 18.9013C24.5058 18.9013 26.2234 18.9013 27.941 18.9013C28.1168 18.9013 28.1884 18.8708 28.183 18.6729C28.1671 18.1517 28.1831 17.6296 28.1754 17.1075C28.142 14.5345 26.072 12.3892 23.502 12.3078C22.0332 12.2636 20.5607 12.2667 19.0881 12.3078C17.0136 12.3641 15.165 13.8466 14.5897 15.8435C14.538 16.0223 14.5539 16.1182 14.7419 16.2187C15.8112 16.7883 16.7004 17.6448 17.3096 18.692C17.3434 18.7624 17.3981 18.8206 17.4661 18.8589C17.5342 18.8971 17.6124 18.9135 17.6901 18.9058C19.391 18.8982 21.0888 18.9013 22.7889 18.9013Z" fill="#1769FF"/>
<path d="M16.9907 4.86119C17.028 2.41603 18.9549 0.545448 21.3978 0.581977C23.7258 0.616223 25.6367 2.60097 25.591 4.93577C25.5823 5.50348 25.4615 6.06387 25.2356 6.58475C25.0097 7.10564 24.6831 7.57677 24.2746 7.97107C23.8661 8.36537 23.3837 8.67509 22.8551 8.88242C22.3266 9.08975 21.7623 9.19061 21.1946 9.17922C18.8727 9.14117 16.955 7.17241 16.9907 4.86119ZM21.2874 2.40234C20.9597 2.4022 20.6352 2.46722 20.3327 2.59361C20.0303 2.71999 19.756 2.90523 19.5258 3.13855C19.2956 3.37187 19.1141 3.64861 18.9918 3.95271C18.8695 4.2568 18.8088 4.58216 18.8134 4.9099C18.822 5.5618 19.0868 6.18411 19.5507 6.64226C20.0145 7.1004 20.6401 7.35755 21.292 7.3581C21.949 7.35509 22.5781 7.09241 23.0422 6.62736C23.5062 6.16231 23.7675 5.53262 23.7691 4.87565C23.7686 4.55029 23.704 4.22821 23.579 3.92781C23.454 3.62742 23.2711 3.35458 23.0406 3.12491C22.8102 2.89523 22.5367 2.7132 22.2359 2.58922C21.9351 2.46524 21.6128 2.40174 21.2874 2.40234Z" fill="#1769FF"/>
<path d="M13.8492 9.80636C13.8598 12.1754 11.9383 14.0947 9.5441 14.1054C7.20776 14.1153 5.27401 12.1982 5.2489 9.84365C5.22379 7.47764 7.15753 5.50583 9.51746 5.49746C10.0854 5.49394 10.6484 5.60283 11.174 5.81785C11.6997 6.03286 12.1776 6.34976 12.5802 6.75028C12.9828 7.15079 13.3023 7.62702 13.52 8.15152C13.7378 8.67603 13.8497 9.23844 13.8492 9.80636ZM12.0273 9.83603C12.036 9.1789 11.7835 8.5452 11.3251 8.07426C10.8667 7.60332 10.24 7.33369 9.5829 7.32467C8.21763 7.30336 7.08524 8.4213 7.07154 9.80407C7.05784 11.1458 8.16132 12.2614 9.52202 12.282C9.84732 12.2866 10.1703 12.2269 10.4725 12.1064C10.7747 11.9858 11.05 11.8068 11.2828 11.5795C11.5156 11.3522 11.7012 11.0812 11.829 10.782C11.9567 10.4828 12.0241 10.1613 12.0273 9.83603Z" fill="#1769FF"/>
</svg>
