<svg width="19" height="17" viewBox="0 0 19 17" fill="none" xmlns="http://www.w3.org/2000/svg">
<path d="M7.89709 10.4543C8.80696 10.4543 9.67157 10.4596 10.5362 10.4502C10.7052 10.4502 10.8024 10.4931 10.8883 10.651C11.3455 11.4688 11.8161 12.2793 12.2767 13.083C12.2481 13.1459 12.2101 13.1278 12.1775 13.1278C8.8855 13.1278 5.59348 13.1278 2.30145 13.1278C1.30306 13.1278 0.654111 12.2458 0.970268 11.3403C1.15464 10.8156 1.64784 10.4663 2.23955 10.4603C3.02695 10.4529 3.81501 10.4516 4.60241 10.4636C4.77946 10.4636 4.86865 10.4047 4.94918 10.2575C6.06072 8.31003 7.17692 6.36502 8.29778 4.42245C8.38231 4.27589 8.39429 4.17082 8.30244 4.02091C7.99627 3.5123 7.6861 3.00368 7.42053 2.47298C6.9626 1.55679 7.60623 0.514797 8.60528 0.532197C8.80987 0.530825 9.01175 0.579223 9.19371 0.673264C9.37567 0.767304 9.5323 0.904198 9.65027 1.07227C9.74877 1.20612 9.83197 1.35469 9.93181 1.51062C10.0696 1.40488 10.1135 1.23623 10.2094 1.10908C10.5275 0.678759 10.9548 0.473306 11.474 0.547591C12.0145 0.624552 12.3912 0.943107 12.5602 1.47783C12.6934 1.90613 12.5882 2.29697 12.3699 2.67442C11.5321 4.12487 10.697 5.57688 9.86459 7.03046L7.89709 10.4543Z" fill="white"/>
<path d="M16.6011 13.1239C16.8993 13.6459 17.1828 14.1237 17.4484 14.6109C17.8158 15.2801 17.6481 16.021 17.055 16.4219C16.4706 16.816 15.6633 16.6849 15.2646 16.1013C14.9983 15.7138 14.78 15.2982 14.5457 14.89C13.2567 12.6467 11.9668 10.4032 10.676 8.15951C10.5901 8.01027 10.5795 7.90654 10.67 7.75195C11.1465 6.94351 11.6085 6.12705 12.091 5.28516C12.1995 5.4692 12.2907 5.62513 12.3839 5.78307C13.2358 7.26609 14.0911 8.74777 14.9338 10.2361C15.0316 10.4088 15.1335 10.461 15.3252 10.4583C16.0773 10.4463 16.8294 10.451 17.5815 10.4536C18.4029 10.4536 18.9986 11.0191 18.9999 11.7868C19.0012 12.5544 18.4055 13.1179 17.5855 13.1252C17.276 13.1259 16.9665 13.1239 16.6011 13.1239Z" fill="white"/>
<path d="M5.75455 14.192C5.3512 14.8566 5.03903 15.5251 4.61039 16.1214C4.41597 16.3851 4.12978 16.5653 3.80898 16.6261C3.48819 16.6869 3.15639 16.6237 2.87985 16.4493C2.31476 16.1027 2.10776 15.3893 2.35936 14.7689C2.52908 14.3493 2.75273 14.1418 3.25525 14.1766C4.06527 14.2335 4.88262 14.192 5.75455 14.192Z" fill="white"/>
</svg>
