<svg width="158" height="34" viewBox="0 0 158 34" fill="none" xmlns="http://www.w3.org/2000/svg">
<path d="M11.7672 33.9797C8.24481 33.9797 4.72237 33.9526 1.19994 33.9985C0.30897 34.011 -0.0101167 33.8735 0.000243411 33.061C0.0520439 28.7966 0.0333886 24.5322 0.0188845 20.2678C0.00562367 20.038 0.049663 19.8084 0.146995 19.5999C0.244326 19.3915 0.391871 19.2108 0.576258 19.0742C4.16776 16.0965 7.74269 13.1043 11.301 10.0975C11.7465 9.72041 11.9744 9.65999 12.4552 10.0662C16.008 13.0744 19.5794 16.068 23.1696 19.0471C23.3455 19.1679 23.4894 19.3302 23.5887 19.5197C23.688 19.7092 23.7397 19.9203 23.7394 20.1345C23.72 24.4677 23.72 28.8015 23.7394 33.136C23.7394 33.7964 23.5529 34.011 22.7034 34.0006C19.0628 33.9547 15.4181 33.9797 11.7672 33.9797Z" fill="white"/>
<path d="M12.1526 0.408203C15.7807 0.408203 19.4461 0.408203 23.1094 0.408203C23.5238 0.408203 23.731 0.508198 23.731 0.866515C23.731 3.96429 23.731 7.06207 23.731 10.1098L12.1526 0.408203Z" fill="white"/>
<path d="M0.211495 9.9348C0.00429317 9.82022 0.0312304 9.64106 0.0312304 9.47023C0.0312304 6.69744 0.0312309 3.92257 0.0187988 1.14978C0.0187988 0.685213 0.041593 0.387309 0.79788 0.397726C4.32031 0.443557 7.84275 0.437308 11.3652 0.447724L11.3859 0.818541C7.78058 3.91007 4.225 7.04118 0.38555 9.9348C0.3277 9.92854 0.269345 9.92854 0.211495 9.9348Z" fill="white"/>
<path d="M0.211497 5.66432C0.269287 5.65703 0.327763 5.65703 0.385553 5.66432L0.0229492 5.81848C0.0229492 5.71224 0.0312317 5.61433 0.211497 5.66432Z" fill="white"/>
<path d="M48.1686 6.20392C49.86 6.19237 51.5383 6.50341 53.1145 7.12055C54.6093 7.70224 55.9794 8.56638 57.1508 9.66627C58.3096 10.7666 59.2387 12.0881 59.8838 13.5536C60.5694 15.1081 60.9149 16.7925 60.897 18.493C60.9149 20.1934 60.5694 21.8778 59.8838 23.4323C59.2346 24.8985 58.3062 26.2227 57.1508 27.3301C55.9834 28.4393 54.6125 29.3096 53.1145 29.8924C51.5383 30.5096 49.86 30.8206 48.1686 30.8091C46.4771 30.8206 44.7989 30.5096 43.2227 29.8924C41.7209 29.3073 40.345 28.4374 39.1698 27.3301C38.0074 26.2264 37.0779 24.8987 36.4368 23.4261C35.7615 21.8688 35.4219 20.1854 35.4402 18.4867C35.4216 16.7879 35.7613 15.1045 36.4368 13.5473C37.0745 12.0777 38.0046 10.7548 39.1698 9.66002C40.3497 8.56505 41.7248 7.70415 43.2227 7.12263C44.7987 6.50478 46.477 6.19304 48.1686 6.20392ZM38.714 18.495C38.6967 19.7496 38.9491 20.9932 39.4537 22.1407C39.9311 23.2141 40.6205 24.1787 41.4801 24.976C42.3523 25.7793 43.3732 26.4022 44.4845 26.8092C45.6628 27.2445 46.9092 27.4632 48.1644 27.4551C49.4087 27.4612 50.6439 27.2425 51.8112 26.8092C52.9223 26.4017 53.9431 25.7788 54.8156 24.976C55.6752 24.1787 56.3646 23.2141 56.8421 22.1407C57.3477 20.9927 57.6007 19.7484 57.5839 18.493C57.6005 17.2369 57.3475 15.9919 56.8421 14.8431C56.3652 13.7706 55.6691 12.8109 54.7991 12.0266C53.9154 11.2344 52.8903 10.618 51.778 10.21C50.6108 9.77677 49.3755 9.55803 48.1313 9.56419C46.8814 9.55492 45.6402 9.77373 44.468 10.21C43.3656 10.6178 42.3514 11.2345 41.4801 12.0266C40.6183 12.8145 39.9283 13.7735 39.4537 14.8431C38.949 15.9921 38.6967 17.237 38.714 18.493V18.495Z" fill="white"/>
<path d="M63.7666 13.5012H66.771V16.8969C67.2743 15.8541 68.0364 14.9593 68.9839 14.2991C69.9164 13.656 71.1596 13.3338 72.7136 13.3324C73.6562 13.3219 74.5897 13.5189 75.4486 13.9095C76.2824 14.2959 77.0163 14.8705 77.5932 15.5886C78.2245 16.3928 78.6946 17.3125 78.9773 18.2968C79.3195 19.4937 79.4843 20.7347 79.4663 21.98V30.4754H76.1283V21.955C76.1283 20.6425 75.948 19.6071 75.5875 18.8488C75.3015 18.1887 74.8775 17.5983 74.3443 17.1177C73.9338 16.7538 73.4407 16.497 72.9083 16.3698C72.5479 16.2842 72.1802 16.2333 71.8102 16.2177C71.2653 16.2308 70.7299 16.3638 70.2417 16.6073C69.6698 16.8825 69.154 17.2626 68.7208 17.7281C68.2352 18.2549 67.8465 18.8644 67.5729 19.528C67.2587 20.2975 67.1036 21.1232 67.1171 21.955V30.4754H63.7749L63.7666 13.5012Z" fill="white"/>
<path d="M89.8988 13.4012C90.9392 13.3917 91.9697 13.6047 92.9219 14.0262C93.8426 14.4353 94.6698 15.0302 95.3524 15.774C96.0561 16.5508 96.596 17.4628 96.9395 18.4551C97.3192 19.5557 97.4742 20.7219 97.3954 21.8841L97.327 23.3778H85.2057C85.5258 24.4825 86.177 25.4609 87.0705 26.1798C87.9213 26.8971 88.9977 27.2876 90.1081 27.2818C90.7235 27.289 91.3386 27.2493 91.9481 27.1631C92.4103 27.0959 92.8635 26.9764 93.299 26.8068C93.6752 26.6584 94.0321 26.4646 94.362 26.2298C94.6931 25.989 95.0094 25.7281 95.3089 25.4486L96.7593 28.5047C96.3197 28.8444 95.8633 29.1614 95.3917 29.4546C94.946 29.729 94.4705 29.9513 93.9745 30.1171C93.4241 30.2969 92.859 30.4272 92.2858 30.5067C91.564 30.6032 90.8363 30.6485 90.1081 30.6421C88.9737 30.65 87.8509 30.4127 86.8157 29.9463C85.8108 29.4985 84.9001 28.8621 84.1324 28.0713C83.3624 27.2716 82.7494 26.333 82.3256 25.3048C81.8848 24.2461 81.6607 23.1089 81.6667 21.9612C81.659 20.8167 81.8832 19.6826 82.3256 18.628C82.7464 17.6194 83.3539 16.7004 84.1158 15.9198C84.8725 15.1492 85.7657 14.5275 86.7494 14.0866C87.7385 13.6349 88.8124 13.4012 89.8988 13.4012ZM93.817 20.3925C93.774 19.8809 93.6293 19.3831 93.3916 18.9287C93.1538 18.4742 92.8279 18.0724 92.4329 17.7468C91.6409 17.0735 90.6334 16.711 89.5963 16.726C89.0682 16.719 88.5444 16.8233 88.0589 17.0323C87.6068 17.2337 87.1877 17.5027 86.8157 17.8301C86.4451 18.1589 86.1265 18.5424 85.8708 18.9676C85.6183 19.3856 85.41 19.8289 85.2492 20.2904L85.214 20.3925H93.817Z" fill="white"/>
<path d="M98.6118 16.5572V13.5011H101.21V9.73461L104.554 8.40967V13.5011H109.855V16.5572H104.554V24.9089C104.554 25.7006 104.802 26.3255 105.296 26.7838C105.828 27.2495 106.517 27.4925 107.221 27.463C107.676 27.458 108.127 27.3777 108.555 27.2255C109.036 27.0549 109.478 26.7892 109.855 26.4443L111.846 28.4129C111.167 29.0194 110.419 29.5431 109.618 29.9733C108.767 30.431 107.815 30.6647 106.85 30.6524C106.102 30.6565 105.361 30.5069 104.672 30.2129C104.004 29.9303 103.396 29.5207 102.882 29.0067C102.361 28.4753 101.948 27.847 101.666 27.1567C101.359 26.4149 101.204 25.6185 101.21 24.8152V16.5655L98.6118 16.5572Z" fill="white"/>
<path d="M112.859 13.5015H116.201V22.0219C116.201 23.3364 116.381 24.376 116.742 25.1468C117.023 25.8096 117.448 26.401 117.985 26.8779C118.401 27.233 118.892 27.4881 119.421 27.6237C119.779 27.7196 120.147 27.7769 120.517 27.7946C121.063 27.782 121.599 27.6483 122.088 27.4029C122.662 27.1251 123.177 26.7389 123.607 26.2655C124.092 25.7326 124.48 25.1185 124.754 24.451C125.07 23.681 125.225 22.8544 125.21 22.0219V13.5015H128.55V30.4757H125.208V27.8946C124.679 28.7679 123.927 29.4829 123.031 29.9653C122.142 30.4431 121 30.6812 119.603 30.6799C118.661 30.6894 117.728 30.4925 116.868 30.1028C116.034 29.7168 115.301 29.1413 114.726 28.4216C114.093 27.618 113.622 26.6981 113.34 25.7134C112.997 24.5166 112.832 23.2755 112.851 22.0302L112.859 13.5015Z" fill="white"/>
<path d="M131.936 13.468H135.278V15.845C135.842 14.9957 136.624 14.3155 137.541 13.8763C138.486 13.454 139.511 13.245 140.545 13.2639C141.439 13.2628 142.328 13.4034 143.179 13.6805L142.143 16.9054C141.607 16.7318 141.048 16.6398 140.485 16.6325C139.831 16.6283 139.182 16.7558 138.577 17.0075C137.987 17.2507 137.445 17.5954 136.973 18.0262C136.501 18.4543 136.112 18.9664 135.825 19.5365C135.53 20.1219 135.346 20.7579 135.284 21.4114V30.4756H131.942L131.936 13.468Z" fill="white"/>
<path d="M145.205 16.5575V13.5014H147.433V10.6161C147.425 9.81962 147.575 9.0295 147.872 8.29123C148.149 7.60303 148.563 6.97912 149.088 6.45798C149.616 5.94198 150.242 5.53813 150.928 5.27053C151.655 4.9867 152.428 4.84527 153.207 4.85389C154.086 4.85448 154.956 5.02127 155.773 5.34553C156.59 5.66151 157.344 6.12225 158 6.70589L155.739 9.15161C155.393 8.81255 154.978 8.55188 154.523 8.38706C154.111 8.24139 153.678 8.16604 153.241 8.16416C152.587 8.13948 151.948 8.36254 151.45 8.78913C150.978 9.20578 150.742 9.81061 150.742 10.6036V13.4889H156.751V16.545H150.742V30.5027H147.427V16.545L145.205 16.5575Z" fill="white"/>
</svg>
