<svg width="158" height="34" viewBox="0 0 158 34" fill="none" xmlns="http://www.w3.org/2000/svg">
<path d="M11.7672 33.5823C8.24481 33.5823 4.72237 33.5552 1.19994 33.601C0.30897 33.6135 -0.0101167 33.476 0.000243411 32.6636C0.0520439 28.3992 0.0333886 24.1348 0.0188845 19.8704C0.00562367 19.6405 0.049663 19.4109 0.146995 19.2025C0.244326 18.994 0.391871 18.8133 0.576258 18.6767C4.16776 15.699 7.74269 12.7068 11.301 9.70001C11.7465 9.32294 11.9744 9.26253 12.4552 9.66876C16.008 12.677 19.5794 15.6706 23.1696 18.6496C23.3455 18.7705 23.4894 18.9327 23.5887 19.1223C23.688 19.3118 23.7397 19.5228 23.7394 19.7371C23.72 24.0702 23.72 28.404 23.7394 32.7386C23.7394 33.3989 23.5529 33.6135 22.7034 33.6031C19.0628 33.5573 15.4181 33.5823 11.7672 33.5823Z" fill="#1769FF"/>
<path d="M12.1526 0.0107422C15.7807 0.0107422 19.4461 0.0107422 23.1095 0.0107422C23.5239 0.0107422 23.7311 0.110737 23.7311 0.469054C23.7311 3.56683 23.7311 6.66461 23.7311 9.71239L12.1526 0.0107422Z" fill="#1769FF"/>
<path d="M0.211541 9.53733C0.00433895 9.42276 0.0312762 9.2436 0.0312762 9.07277C0.0312762 6.29998 0.0312767 3.52511 0.0188446 0.752314C0.0188446 0.287752 0.0416388 -0.0101516 0.797926 0.000264611C4.32036 0.0460959 7.84279 0.0398473 11.3652 0.0502635L11.3859 0.42108C7.78063 3.51261 4.22505 6.64371 0.385596 9.53733C0.327746 9.53108 0.269391 9.53108 0.211541 9.53733Z" fill="#1769FF"/>
<path d="M0.211543 5.26686C0.269333 5.25957 0.327809 5.25957 0.385598 5.26686L0.022995 5.42102C0.022995 5.31478 0.0312775 5.21687 0.211543 5.26686Z" fill="#1769FF"/>
<path d="M48.1685 5.80646C49.8599 5.79491 51.5382 6.10595 53.1144 6.72309C54.6091 7.30478 55.9792 8.16892 57.1507 9.26881C58.3095 10.3691 59.2386 11.6907 59.8837 13.1561C60.5693 14.7106 60.9148 16.3951 60.8969 18.0955C60.9148 19.7959 60.5693 21.4803 59.8837 23.0349C59.2345 24.501 58.306 25.8252 57.1507 26.9326C55.9832 28.0418 54.6124 28.9121 53.1144 29.495C51.5382 30.1121 49.8599 30.4232 48.1685 30.4116C46.477 30.4232 44.7987 30.1121 43.2226 29.495C41.7208 28.9098 40.3449 28.0399 39.1697 26.9326C38.0073 25.8289 37.0778 24.5012 36.4367 23.0286C35.7614 21.4713 35.4217 19.788 35.4401 18.0892C35.4215 16.3905 35.7612 14.7071 36.4367 13.1499C37.0744 11.6802 38.0045 10.3573 39.1697 9.26256C40.3496 8.16759 41.7247 7.30669 43.2226 6.72517C44.7986 6.10732 46.4769 5.79558 48.1685 5.80646ZM38.7138 18.0976C38.6966 19.3522 38.9489 20.5957 39.4536 21.7432C39.931 22.8166 40.6204 23.7813 41.48 24.5785C42.3522 25.3818 43.3731 26.0047 44.4844 26.4118C45.6627 26.847 46.9091 27.0658 48.1643 27.0576C49.4086 27.0638 50.6438 26.845 51.8111 26.4118C52.9222 26.0042 53.943 25.3814 54.8155 24.5785C55.6751 23.7813 56.3645 22.8166 56.8419 21.7432C57.3476 20.5952 57.6006 19.3509 57.5837 18.0955C57.6004 16.8394 57.3474 15.5945 56.8419 14.4457C56.365 13.3731 55.6689 12.4134 54.7989 11.6291C53.9153 10.8369 52.8901 10.2205 51.7779 9.81253C50.6106 9.37931 49.3754 9.16056 48.1312 9.16673C46.8813 9.15746 45.6401 9.37627 44.4678 9.81253C43.3655 10.2204 42.3512 10.837 41.48 11.6291C40.6182 12.4171 39.9282 13.3761 39.4536 14.4457C38.9489 15.5946 38.6965 16.8396 38.7138 18.0955V18.0976Z" fill="#1769FF"/>
<path d="M63.7666 13.1037H66.771V16.4994C67.2743 15.4566 68.0364 14.5619 68.9839 13.9016C69.9164 13.2586 71.1596 12.9364 72.7136 12.935C73.6562 12.9245 74.5897 13.1214 75.4486 13.512C76.2824 13.8984 77.0163 14.473 77.5932 15.1911C78.2245 15.9953 78.6946 16.9151 78.9773 17.8993C79.3195 19.0962 79.4843 20.3373 79.4663 21.5825V30.0779H76.1283V21.5575C76.1283 20.2451 75.948 19.2097 75.5875 18.4514C75.3015 17.7913 74.8775 17.2008 74.3443 16.7202C73.9338 16.3564 73.4407 16.0995 72.9083 15.9723C72.5479 15.8867 72.1802 15.8358 71.8102 15.8203C71.2653 15.8333 70.7299 15.9663 70.2417 16.2098C69.6698 16.4851 69.154 16.8652 68.7208 17.3306C68.2352 17.8575 67.8465 18.4669 67.5729 19.1305C67.2587 19.9 67.1036 20.7258 67.1171 21.5575V30.0779H63.7749L63.7666 13.1037Z" fill="#1769FF"/>
<path d="M89.8989 13.0037C90.9393 12.9943 91.9698 13.2073 92.922 13.6287C93.8427 14.0378 94.6699 14.6327 95.3525 15.3765C96.0562 16.1533 96.5961 17.0653 96.9397 18.0577C97.3193 19.1582 97.4743 20.3245 97.3955 21.4867L97.3271 22.9803H85.2058C85.5259 24.085 86.1771 25.0635 87.0706 25.7823C87.9214 26.4997 88.9978 26.8902 90.1082 26.8843C90.7236 26.8915 91.3387 26.8518 91.9482 26.7656C92.4104 26.6984 92.8636 26.5789 93.2991 26.4094C93.6753 26.2609 94.0323 26.0671 94.3621 25.8323C94.6933 25.5916 95.0095 25.3307 95.309 25.0511L96.7594 28.1072C96.3198 28.4469 95.8634 28.764 95.3919 29.0572C94.9461 29.3315 94.4706 29.5538 93.9746 29.7196C93.4243 29.8994 92.8592 30.0298 92.2859 30.1092C91.5641 30.2058 90.8364 30.251 90.1082 30.2446C88.9738 30.2525 87.851 30.0152 86.8158 29.5488C85.8109 29.101 84.9003 28.4647 84.1325 27.6739C83.3625 26.8742 82.7495 25.9356 82.3257 24.9073C81.8849 23.8486 81.6608 22.7115 81.6668 21.5637C81.6591 20.4192 81.8833 19.2851 82.3257 18.2306C82.7465 17.222 83.354 16.303 84.1159 15.5224C84.8726 14.7518 85.7658 14.13 86.7495 13.6891C87.7387 13.2374 88.8125 13.0037 89.8989 13.0037ZM93.8171 19.9951C93.7741 19.4834 93.6294 18.9856 93.3917 18.5312C93.154 18.0768 92.828 17.6749 92.433 17.3494C91.641 16.6761 90.6335 16.3135 89.5964 16.3286C89.0683 16.3215 88.5446 16.4258 88.059 16.6348C87.6069 16.8362 87.1878 17.1052 86.8158 17.4327C86.4452 17.7614 86.1266 18.145 85.8709 18.5701C85.6185 18.9881 85.4101 19.4315 85.2493 19.893L85.2141 19.9951H93.8171Z" fill="#1769FF"/>
<path d="M98.6118 16.1598V13.1036H101.21V9.33715L104.554 8.01221V13.1036H109.855V16.1598H104.554V24.5115C104.554 25.3031 104.802 25.9281 105.296 26.3864C105.828 26.852 106.517 27.095 107.221 27.0655C107.676 27.0605 108.127 26.9803 108.555 26.828C109.036 26.6574 109.478 26.3918 109.855 26.0468L111.846 28.0155C111.167 28.6219 110.419 29.1456 109.618 29.5758C108.767 30.0336 107.815 30.2672 106.85 30.255C106.102 30.259 105.361 30.1094 104.672 29.8154C104.004 29.5328 103.396 29.1233 102.882 28.6092C102.361 28.0779 101.948 27.4495 101.666 26.7593C101.359 26.0174 101.204 25.2211 101.21 24.4177V16.1681L98.6118 16.1598Z" fill="#1769FF"/>
<path d="M112.859 13.104H116.201V21.6245C116.201 22.939 116.381 23.9785 116.742 24.7493C117.023 25.4121 117.448 26.0035 117.985 26.4805C118.401 26.8356 118.892 27.0906 119.421 27.2263C119.779 27.3222 120.147 27.3794 120.517 27.3971C121.063 27.3846 121.599 27.2508 122.088 27.0055C122.662 26.7276 123.177 26.3415 123.607 25.868C124.092 25.3351 124.48 24.721 124.754 24.0535C125.069 23.2835 125.225 22.4569 125.21 21.6245V13.104H128.55V30.0782H125.208V27.4971C124.679 28.3704 123.927 29.0854 123.031 29.5678C122.142 30.0456 121 30.2838 119.603 30.2824C118.661 30.2919 117.728 30.095 116.868 29.7053C116.034 29.3194 115.301 28.7439 114.726 28.0242C114.093 27.2206 113.622 26.3007 113.34 25.316C112.997 24.1191 112.832 22.878 112.851 21.6328L112.859 13.104Z" fill="#1769FF"/>
<path d="M131.936 13.0706H135.278V15.4475C135.842 14.5983 136.624 13.9181 137.541 13.4789C138.486 13.0566 139.511 12.8475 140.545 12.8664C141.439 12.8653 142.328 13.0059 143.179 13.2831L142.143 16.5079C141.607 16.3343 141.048 16.2423 140.485 16.235C139.831 16.2309 139.182 16.3584 138.577 16.61C137.987 16.8533 137.445 17.198 136.973 17.6287C136.501 18.0569 136.112 18.5689 135.825 19.139C135.53 19.7244 135.346 20.3604 135.284 21.014V30.0781H131.942L131.936 13.0706Z" fill="#1769FF"/>
<path d="M145.205 16.1601V13.104H147.433V10.2187C147.425 9.42216 147.575 8.63204 147.872 7.89377C148.149 7.20557 148.563 6.58166 149.088 6.06052C149.616 5.54452 150.242 5.14067 150.928 4.87307C151.655 4.58924 152.428 4.44781 153.207 4.45643C154.086 4.45702 154.956 4.62381 155.773 4.94807C156.59 5.26405 157.344 5.72479 158 6.30843L155.739 8.75415C155.393 8.41509 154.978 8.15442 154.523 7.9896C154.111 7.84393 153.677 7.76858 153.241 7.7667C152.587 7.74202 151.948 7.96508 151.45 8.39167C150.978 8.80832 150.742 9.41315 150.742 10.2062V13.0915H156.751V16.1476H150.742V30.1053H147.426V16.1476L145.205 16.1601Z" fill="#1769FF"/>
</svg>
