<svg width="17" height="19" viewBox="0 0 17 19" fill="none" xmlns="http://www.w3.org/2000/svg">
<path d="M1.45332 19C1.30145 18.94 1.14397 18.8907 0.998167 18.8182C0.364969 18.5025 0.0378516 17.9854 0 17.2838C0 17.2466 0 17.2094 0 17.1722C0 12.0575 0 6.94277 0 1.82806C0 0.985061 0.464505 0.327589 1.23743 0.0820824C1.76081 -0.0839132 2.25007 0.0114059 2.72018 0.282021C5.25328 1.73894 7.78778 3.19477 10.3237 4.64952C12.23 5.74438 14.1363 6.83923 16.0426 7.93409C16.6393 8.27538 16.9865 8.77384 16.9996 9.4606C17.0136 10.179 16.6687 10.7049 16.0449 11.062C14.0352 12.2132 12.0267 13.3665 10.0195 14.5218C7.60818 15.9065 5.19751 17.292 2.78747 18.6782C2.5423 18.8133 2.28274 18.9208 2.01362 18.9986L1.45332 19ZM2.65429 17.4475L2.69261 17.4228L2.67158 17.4005L2.64634 17.4414L2.61363 17.4642C2.61784 17.4674 2.62485 17.4744 2.62532 17.4735C2.63538 17.4658 2.64505 17.4575 2.65429 17.4488V17.4475ZM1.14209 17.3321L1.17294 17.361C1.20469 17.3153 1.23885 17.2714 1.27527 17.2294C3.73018 14.681 6.18633 12.1337 8.64373 9.58754C8.75261 9.47501 8.75915 9.42015 8.64373 9.30344C6.19443 6.76716 3.74762 4.2281 1.30331 1.68624C1.26409 1.63938 1.22803 1.58998 1.19537 1.53838L1.14209 1.56814V17.3321ZM11.5719 12.3448C10.9176 11.6674 10.2793 11.0094 9.64703 10.3454C9.55731 10.2525 9.51852 10.2827 9.44702 10.3566C7.22078 12.67 4.9933 14.9825 2.76457 17.294C2.73607 17.3238 2.67392 17.347 2.71784 17.4298L11.5719 12.3448ZM15.8869 9.4978C15.8668 9.25462 15.7622 9.06351 15.5453 8.93983C14.5637 8.37597 13.5823 7.81134 12.6013 7.24593C12.5354 7.20827 12.492 7.19385 12.4284 7.26035C11.7533 7.96804 11.0753 8.67309 10.3942 9.37551C10.3354 9.43596 10.3475 9.46525 10.398 9.51965C11.0999 10.245 11.7997 10.9721 12.4976 11.7008C12.5481 11.7534 12.585 11.7673 12.6537 11.7278C13.628 11.1638 14.6051 10.6049 15.579 10.0404C15.7823 9.92185 15.8701 9.7275 15.8869 9.4978ZM2.93 1.69136L2.90009 1.73134C2.95056 1.78528 3.00009 1.83968 3.05103 1.89316C4.53893 3.43718 6.02698 4.98151 7.51519 6.52615C8.15602 7.19107 8.79732 7.85567 9.43908 8.51996C9.48581 8.56646 9.52039 8.67433 9.626 8.56646C10.2456 7.91549 10.87 7.2729 11.5036 6.61357L2.93 1.69136Z" fill="white"/>
</svg>
