<svg width="18" height="14" viewBox="0 0 18 14" fill="none" xmlns="http://www.w3.org/2000/svg">
<path d="M16.1568 3.48969C16.1639 3.64123 16.1672 3.79357 16.1668 3.94671C16.1668 8.61555 12.4527 13.9994 5.66043 14C3.65363 14.0019 1.68865 13.4512 0 12.4136C1.95288 12.6345 3.91788 12.1084 5.4675 10.95C4.69686 10.9363 3.94999 10.6923 3.33144 10.2522C2.71289 9.8122 2.25363 9.19809 2.01795 8.49588C2.57119 8.59818 3.14159 8.5776 3.68522 8.43575C2.84959 8.27433 2.09805 7.84128 1.55809 7.21006C1.01812 6.57884 0.722973 5.78832 0.722715 4.97261C0.722715 4.95637 0.722715 4.94194 0.722715 4.92751C1.23536 5.20072 1.80911 5.3521 2.39564 5.36889C1.6139 4.86924 1.06047 4.10334 0.84799 3.22706C0.635507 2.35077 0.779929 1.42994 1.25187 0.651944C2.17924 1.74352 3.33615 2.63629 4.64749 3.27228C5.95884 3.90828 7.3953 4.27328 8.86363 4.3436C8.67753 3.58536 8.75832 2.78955 9.09344 2.07976C9.42857 1.36997 9.99928 0.785944 10.7169 0.418398C11.4346 0.0508526 12.2589 -0.0796382 13.0621 0.0471933C13.8652 0.174025 14.602 0.55108 15.1582 1.11979C15.9851 0.963806 16.7781 0.673795 17.5029 0.262272C17.2269 1.08048 16.6499 1.77498 15.879 2.21664C16.6111 2.13339 17.326 1.9457 18 1.6598C17.5041 2.36975 16.88 2.98941 16.1568 3.48969Z" fill="white"/>
</svg>
